<?xml version="1.0" encoding="UTF-8"?>
<!DOCTYPE svg PUBLIC "-//W3C//DTD SVG 1.1//EN" "http://www.w3.org/Graphics/SVG/1.1/DTD/svg11.dtd">
<!-- Creator: CorelDRAW X7 -->
<svg xmlns="http://www.w3.org/2000/svg" xml:space="preserve" width="0.416701in" height="0.575047in" version="1.1" style="shape-rendering:geometricPrecision; text-rendering:geometricPrecision; image-rendering:optimizeQuality; fill-rule:evenodd; clip-rule:evenodd"
viewBox="0 0 131 181"
 xmlns:xlink="http://www.w3.org/1999/xlink">
 <defs>
  <style type="text/css">
   <![CDATA[
    .fil0 {fill:#FDB412}
   ]]>
  </style>
 </defs>
 <g id="Layer_x0020_1">
  <metadata id="CorelCorpID_0Corel-Layer"/>
  <path class="fil0" d="M100 50l0 3 -45 0 0 2 -2 0 0 13 2 0 0 3 40 0 0 3 2 0 0 10 -2 0 0 16 -3 0 0 3 -34 0 0 2 -5 0 0 3 -3 0 0 5 -3 0 0 3 -2 0 0 2 -3 0 0 3 -3 0 0 3 -2 0 0 5 -3 0 0 2 -2 0 0 3 -3 0 0 3 -3 0 0 5 -5 0 0 -121 3 0 0 -3 81 0 0 3 3 0 0 18 -3 0 0 11 -5 0zm-95 -47l0 2 -2 0 0 3 -3 0 0 171 3 0 0 2 13 0 0 -2 2 0 0 -3 3 0 0 -2 3 0 0 -3 2 0 0 -3 3 0 0 -2 3 0 0 -6 2 0 0 -2 3 0 0 -3 2 0 0 -2 3 0 0 -3 3 0 0 -3 2 0 0 -5 3 0 0 -3 3 0 0 -2 2 0 0 -3 3 0 0 -3 2 0 0 -2 3 0 0 -3 3 0 0 -2 39 0 0 -3 3 0 0 -3 2 0 0 -8 3 0 0 -10 3 0 0 -13 2 0 0 -13 3 0 0 -14 3 0 0 -13 2 0 0 -13 3 0 0 -13 2 0 0 -13 -2 0 0 -5 -3 0 0 -3 -118 0 0 3 -3 0z"/>
 </g>
</svg>
